<?xml version="1.0" ?><!DOCTYPE svg  PUBLIC '-//W3C//DTD SVG 1.1//EN'  'http://www.w3.org/Graphics/SVG/1.1/DTD/svg11.dtd'><svg style="enable-background:new 0 0 35.999 36.005;" version="1.1" viewBox="0 0 35.999 36.005" xml:space="preserve" xmlns="http://www.w3.org/2000/svg" xmlns:xlink="http://www.w3.org/1999/xlink"><g id="Settings"><g id="Layer_13"><g id="ClipView_10"><path d="M0,0v36.005h35.999V0H0z" marker-end="none" marker-start="none" style="fill:none;"/><g><defs><rect height="36.005" id="SVGID_1_" width="35.999"/></defs><clipPath id="SVGID_2_"><use style="overflow:visible;" xlink:href="#SVGID_1_"/></clipPath><g style="clip-path:url(#SVGID_2_);"><g id="Group_26"><g id="Group_27"><path d="M15.678,33.912l-0.762-3.456l-1.862-0.573         l-1.685-0.896l-2.981,1.904c-0.296,0.189-0.685,0.147-0.934-0.102L5.21,28.546c-0.249-0.249-0.291-0.638-0.101-0.935         l1.906-2.979l-0.899-1.684l-0.575-1.864l-3.453-0.761C1.745,20.247,1.5,19.942,1.5,19.59v-3.175         c0-0.351,0.245-0.656,0.588-0.732l3.453-0.76l0.575-1.862l0.899-1.684L5.109,8.394C4.919,8.098,4.961,7.709,5.21,7.46         l2.244-2.243c0.249-0.249,0.638-0.291,0.935-0.101l2.981,1.907l1.684-0.895l1.862-0.575l0.762-3.459         c0.076-0.344,0.381-0.589,0.733-0.589h3.175c0.352,0,0.657,0.246,0.732,0.59l0.759,3.458l1.861,0.575l1.684,0.895         l2.986-1.908c0.296-0.189,0.685-0.147,0.934,0.102l2.244,2.243c0.249,0.249,0.291,0.638,0.101,0.935l-1.91,2.985l0.898,1.681         l0.576,1.862l3.457,0.76c0.343,0.076,0.589,0.38,0.589,0.732v3.175c0,0.353-0.246,0.657-0.589,0.733l-3.457,0.761         l-0.575,1.863l-0.897,1.683l1.908,2.981c0.19,0.297,0.148,0.686-0.101,0.935l-2.244,2.243         c-0.249,0.249-0.638,0.291-0.934,0.102l-2.985-1.905l-1.686,0.897l-1.861,0.573l-0.758,3.455         c-0.075,0.344-0.38,0.589-0.732,0.589h-3.175C16.059,34.5,15.754,34.256,15.678,33.912z M21.749,18.002         c0-2.069-1.681-3.75-3.751-3.75c-2.07,0-3.75,1.681-3.75,3.75c0,2.071,1.68,3.751,3.75,3.751         C20.068,21.753,21.749,20.073,21.749,18.002z" marker-end="none" marker-start="none" style="fill:#526073;"/><linearGradient gradientTransform="matrix(1 0 0 1 421.324 74.247)" gradientUnits="userSpaceOnUse" id="SVGID_3_" x1="-389.394" x2="-409.988" y1="-42.3151" y2="-62.9061"><stop offset="0" style="stop-color:#FFFFFF"/><stop offset="0.5872" style="stop-color:#BEC6D1"/><stop offset="1" style="stop-color:#E6E9ED"/></linearGradient><path d="M16.411,33.75l-0.855-3.879         c-1.533-0.315-2.961-0.918-4.224-1.751l-3.347,2.138l-2.244-2.243l2.141-3.346c-0.836-1.263-1.44-2.69-1.756-4.226         L2.25,19.59v-3.175l3.876-0.853c0.316-1.533,0.92-2.96,1.756-4.223L5.741,7.99l2.244-2.243l3.348,2.141         c1.264-0.831,2.69-1.436,4.223-1.752l0.855-3.881h3.175l0.852,3.881c1.531,0.316,2.959,0.921,4.223,1.752l3.351-2.141         l2.244,2.243l-2.144,3.351c0.834,1.261,1.44,2.688,1.756,4.221l3.879,0.853v3.175l-3.879,0.853         c-0.316,1.535-0.92,2.961-1.754,4.224l2.142,3.348l-2.244,2.243l-3.35-2.139c-1.265,0.834-2.693,1.437-4.224,1.752         l-0.852,3.879H16.411z M22.499,18.002c0-2.484-2.016-4.5-4.501-4.5c-2.484,0-4.5,2.016-4.5,4.5         c0,2.485,2.016,4.501,4.5,4.501C20.483,22.503,22.499,20.487,22.499,18.002z" marker-end="none" marker-start="none" style="fill:url(#SVGID_3_);"/></g><linearGradient gradientTransform="matrix(1 0 0 1 410.249 68.71)" gradientUnits="userSpaceOnUse" id="SVGID_4_" x1="-386.9814" x2="-395.9814" y1="-44.1246" y2="-55.3716"><stop offset="0" style="stop-color:#FFFFFF"/><stop offset="1" style="stop-color:#6F8199"/></linearGradient><path d="M9.001,18.002c0-4.968,4.031-8.998,8.997-8.998        c4.97,0,9.001,4.03,9.001,8.998c0,4.969-4.031,8.999-9.001,8.999C13.032,27.001,9.001,22.971,9.001,18.002z M25.874,18.002        c0-4.345-3.53-7.873-7.877-7.873c-4.344,0-7.874,3.528-7.874,7.873c0,4.346,3.53,7.874,7.874,7.874        C22.344,25.876,25.874,22.348,25.874,18.002z" marker-end="none" marker-start="none" style="fill:url(#SVGID_4_);"/><defs><filter filterUnits="userSpaceOnUse" height="31.495" id="Adobe_OpacityMaskFilter" width="31.497" x="2.25" y="2.255"><feColorMatrix type="matrix" values="1 0 0 0 0  0 1 0 0 0  0 0 1 0 0  0 0 0 1 0"/></filter></defs><mask height="31.495" id="TranspMask_12_1_" maskUnits="userSpaceOnUse" width="31.497" x="2.25" y="2.255"><linearGradient gradientTransform="matrix(1 0 0 1 399.518 52.444)" gradientUnits="userSpaceOnUse" id="SVGID_5_" x1="-413.7378" x2="-407.6798" y1="-67.1667" y2="-61.1117"><stop offset="0" style="stop-color:#FFFFFF"/><stop offset="1" style="stop-color:#000000"/></linearGradient><rect height="784.45" style="fill:url(#SVGID_5_);filter:url(#Adobe_OpacityMaskFilter);" width="576.899" x="-269.075" y="-373.37"/></mask><path d="M16.411,33.75        l-0.855-3.879c-1.533-0.315-2.961-0.918-4.224-1.751l-3.347,2.138l-2.244-2.243l2.141-3.346        c-0.836-1.263-1.44-2.69-1.756-4.226L2.25,19.59v-3.175l3.876-0.853c0.316-1.533,0.92-2.96,1.756-4.223L5.741,7.99        l2.244-2.243l3.348,2.141c1.264-0.831,2.69-1.436,4.223-1.752l0.855-3.881h3.175l0.852,3.881        c1.531,0.316,2.959,0.921,4.223,1.752l3.351-2.141l2.244,2.243l-2.144,3.351c0.834,1.261,1.44,2.688,1.756,4.221l3.879,0.853        v3.175l-3.879,0.853c-0.316,1.535-0.92,2.961-1.754,4.224l2.142,3.348l-2.244,2.243l-3.35-2.139        c-1.265,0.834-2.693,1.437-4.224,1.752l-0.852,3.879H16.411z M18.68,32.625l0.658-2.994c0.095-0.435,0.437-0.771,0.872-0.861        c1.389-0.287,2.685-0.833,3.833-1.59c0.37-0.245,0.85-0.248,1.224-0.009l2.587,1.653l0.966-0.965l-1.654-2.584        c-0.24-0.375-0.237-0.855,0.009-1.227c0.756-1.146,1.305-2.439,1.59-3.83c0.088-0.435,0.426-0.777,0.859-0.873l2.998-0.658        V17.32l-2.998-0.659c-0.433-0.096-0.771-0.438-0.859-0.873c-0.285-1.387-0.834-2.68-1.592-3.826        c-0.246-0.371-0.249-0.852-0.009-1.227l1.656-2.588l-0.964-0.964l-2.591,1.654c-0.373,0.239-0.853,0.236-1.224-0.009        c-1.146-0.754-2.442-1.303-3.831-1.59c-0.435-0.09-0.777-0.427-0.872-0.861L18.68,3.38h-1.366l-0.66,2.999        c-0.096,0.433-0.436,0.769-0.871,0.859c-1.391,0.287-2.684,0.836-3.832,1.59c-0.37,0.245-0.85,0.248-1.224,0.008L8.14,7.183        L7.175,8.147l1.653,2.588c0.24,0.373,0.237,0.855-0.009,1.225c-0.757,1.146-1.306,2.439-1.591,3.828        c-0.089,0.435-0.426,0.777-0.86,0.873L3.375,17.32v1.367l2.993,0.658c0.434,0.096,0.771,0.438,0.86,0.873        c0.286,1.392,0.834,2.685,1.591,3.831c0.246,0.371,0.249,0.852,0.009,1.227l-1.653,2.583l0.966,0.965l2.585-1.652        c0.373-0.238,0.853-0.235,1.224,0.009c1.146,0.756,2.442,1.302,3.831,1.589c0.435,0.088,0.777,0.426,0.873,0.859l0.66,2.996        H18.68z M12.373,18.002c0-3.105,2.519-5.625,5.625-5.625c3.106,0,5.626,2.52,5.626,5.625c0,3.107-2.52,5.626-5.626,5.626        C14.892,23.628,12.373,21.109,12.373,18.002z M22.499,18.002c0-2.484-2.016-4.5-4.501-4.5c-2.484,0-4.5,2.016-4.5,4.5        c0,2.485,2.016,4.501,4.5,4.501C20.483,22.503,22.499,20.487,22.499,18.002z" marker-end="none" marker-start="none" style="mask:url(#TranspMask_12_1_);fill:#FFFFFF;"/></g></g></g></g></g></g><g id="Layer_1"/></svg>